#Produced by Art of Illusion 2.9.2, Sat Apr 27 22:51:44 IST 2013
s 1
g Sphere_1
v 1.36718 2.01043 0.25043
v -1.14718 2.01043 0.25043
v -1.14718 1.50957 0.25043
v 1.36718 1.50957 0.25043
v 1.36718 2.01043 -0.25043
v -1.14718 2.01043 -0.25043
v -1.14718 1.50957 -0.25043
v 1.36718 1.50957 -0.25043
v 1.27632 2.26981 0.26315
v -1.05632 2.26981 0.26315
v -1.05632 1.25019 0.26315
v 1.27632 1.25019 0.26315
v 1.27632 2.26981 -0.26315
v -1.05632 2.26981 -0.26315
v -1.05632 1.25019 -0.26315
v 1.27632 1.25019 -0.26315
v 1.27632 2.02315 0.50981
v -1.05632 2.02315 0.50981
v -1.05632 1.49685 0.50981
v 1.27632 1.49685 0.50981
v 1.27632 2.02315 -0.50981
v -1.05632 2.02315 -0.50981
v -1.05632 1.49685 -0.50981
v 1.27632 1.49685 -0.50981
v 1.14316 2.48746 0.26627
v -0.92316 2.48746 0.26627
v -0.92316 1.03254 0.26627
v 1.14316 1.03254 0.26627
v 1.14316 2.48746 -0.26627
v -0.92316 2.48746 -0.26627
v -0.92316 1.03254 -0.26627
v 1.14316 1.03254 -0.26627
v 1.17961 2.27439 0.51439
v -0.95961 2.27439 0.51439
v -0.95961 1.24561 0.51439
v 1.17961 1.24561 0.51439
v 1.17961 2.27439 -0.51439
v -0.95961 2.27439 -0.51439
v -0.95961 1.24561 -0.51439
v 1.17961 1.24561 -0.51439
v 1.14316 2.02627 0.72746
v -0.92316 2.02627 0.72746
v -0.92316 1.49373 0.72746
v 1.14316 1.49373 0.72746
v 1.14316 2.02627 -0.72746
v -0.92316 2.02627 -0.72746
v -0.92316 1.49373 -0.72746
v 1.14316 1.49373 -0.72746
v 0.86633 2.75373 0.26627
v -0.64633 2.75373 0.26627
v -0.64633 0.76627 0.26627
v 0.86633 0.76627 0.26627
v 0.86633 2.75373 -0.26627
v -0.64633 2.75373 -0.26627
v -0.64633 0.76627 -0.26627
v 0.86633 0.76627 -0.26627
v 0.94788 2.5659 0.53727
v -0.72788 2.5659 0.53727
v -0.72788 0.9541 0.53727
v 0.94788 0.9541 0.53727
v 0.94788 2.5659 -0.53727
v -0.72788 2.5659 -0.53727
v -0.72788 0.9541 -0.53727
v 0.94788 0.9541 -0.53727
v 0.94788 2.29727 0.8059
v -0.72788 2.29727 0.8059
v -0.72788 1.22273 0.8059
v 0.94788 1.22273 0.8059
v 0.94788 2.29727 -0.8059
v -0.72788 2.29727 -0.8059
v -0.72788 1.22273 -0.8059
v 0.94788 1.22273 -0.8059
v 0.86633 2.02627 0.99373
v -0.64633 2.02627 0.99373
v -0.64633 1.49373 0.99373
v 0.86633 1.49373 0.99373
v 0.86633 2.02627 -0.99373
v -0.64633 2.02627 -0.99373
v -0.64633 1.49373 -0.99373
v 0.86633 1.49373 -0.99373
v 0.64005 2.8818 0.26315
v -0.42005 2.8818 0.26315
v -0.42005 0.6382 0.26315
v 0.64005 0.6382 0.26315
v 0.64005 2.8818 -0.26315
v -0.42005 2.8818 -0.26315
v -0.42005 0.6382 -0.26315
v 0.64005 0.6382 -0.26315
v 0.64481 2.78879 0.51439
v -0.42481 2.78879 0.51439
v -0.42481 0.73121 0.51439
v 0.64481 0.73121 0.51439
v 0.64481 2.78879 -0.51439
v -0.42481 2.78879 -0.51439
v -0.42481 0.73121 -0.51439
v 0.64481 0.73121 -0.51439
v 0.66859 2.5659 0.8059
v -0.44859 2.5659 0.8059
v -0.44859 0.9541 0.8059
v 0.66859 0.9541 0.8059
v 0.66859 2.5659 -0.8059
v -0.44859 2.5659 -0.8059
v -0.44859 0.9541 -0.8059
v 0.66859 0.9541 -0.8059
v 0.64481 2.27439 1.02879
v -0.42481 2.27439 1.02879
v -0.42481 1.24561 1.02879
v 0.64481 1.24561 1.02879
v 0.64481 2.27439 -1.02879
v -0.42481 2.27439 -1.02879
v -0.42481 1.24561 -1.02879
v 0.64481 1.24561 -1.02879
v 0.64005 2.02315 1.1218
v -0.42005 2.02315 1.1218
v -0.42005 1.49685 1.1218
v 0.64005 1.49685 1.1218
v 0.64005 2.02315 -1.1218
v -0.42005 2.02315 -1.1218
v -0.42005 1.49685 -1.1218
v 0.64005 1.49685 -1.1218
v 0.37037 2.9692 0.25043
v -0.15037 2.9692 0.25043
v -0.15037 0.5508 0.25043
v 0.37037 0.5508 0.25043
v 0.37037 2.9692 -0.25043
v -0.15037 2.9692 -0.25043
v -0.15037 0.5508 -0.25043
v 0.37037 0.5508 -0.25043
v 0.38359 2.8818 0.50981
v -0.16359 2.8818 0.50981
v -0.16359 0.6382 0.50981
v 0.38359 0.6382 0.50981
v 0.38359 2.8818 -0.50981
v -0.16359 2.8818 -0.50981
v -0.16359 0.6382 -0.50981
v 0.38359 0.6382 -0.50981
v 0.38684 2.75373 0.72746
v -0.16684 2.75373 0.72746
v -0.16684 0.76627 0.72746
v 0.38684 0.76627 0.72746
v 0.38684 2.75373 -0.72746
v -0.16684 2.75373 -0.72746
v -0.16684 0.76627 -0.72746
v 0.38684 0.76627 -0.72746
v 0.38684 2.48746 0.99373
v -0.16684 2.48746 0.99373
v -0.16684 1.03254 0.99373
v 0.38684 1.03254 0.99373
v 0.38684 2.48746 -0.99373
v -0.16684 2.48746 -0.99373
v -0.16684 1.03254 -0.99373
v 0.38684 1.03254 -0.99373
v 0.38359 2.26981 1.1218
v -0.16359 2.26981 1.1218
v -0.16359 1.25019 1.1218
v 0.38359 1.25019 1.1218
v 0.38359 2.26981 -1.1218
v -0.16359 2.26981 -1.1218
v -0.16359 1.25019 -1.1218
v 0.38359 1.25019 -1.1218
v 0.37037 2.01043 1.2092
v -0.15037 2.01043 1.2092
v -0.15037 1.50957 1.2092
v 0.37037 1.50957 1.2092
v 0.37037 2.01043 -1.2092
v -0.15037 2.01043 -1.2092
v -0.15037 1.50957 -1.2092
v 0.37037 1.50957 -1.2092
v 1.39483 2.00581 0
v -1.17483 2.00581 0
v 1.39483 1.51419 0
v -1.17483 1.51419 0
v 0.11 2.99579 0.24581
v 0.11 0.52421 0.24581
v 0.11 2.99579 -0.24581
v 0.11 0.52421 -0.24581
v 1.39483 1.76 0.24581
v -1.17483 1.76 0.24581
v 1.39483 1.76 -0.24581
v -1.17483 1.76 -0.24581
v 1.32028 2.24218 0
v -1.10028 2.24218 0
v 1.32028 1.27782 0
v -1.10028 1.27782 0
v 0.11 2.92409 0.48218
v 0.11 0.59591 0.48218
v 0.11 2.92409 -0.48218
v 0.11 0.59591 -0.48218
v 1.32028 1.76 0.48218
v -1.10028 1.76 0.48218
v 1.32028 1.76 -0.48218
v -1.10028 1.76 -0.48218
v 1.19923 2.46002 0
v -0.97923 2.46002 0
v 1.19923 1.05998 0
v -0.97923 1.05998 0
v 0.11 2.80765 0.70002
v 0.11 0.71235 0.70002
v 0.11 2.80765 -0.70002
v 0.11 0.71235 -0.70002
v 1.19923 1.76 0.70002
v -0.97923 1.76 0.70002
v 1.19923 1.76 -0.70002
v -0.97923 1.76 -0.70002
v 1.03631 2.65095 0
v -0.81631 2.65095 0
v 1.03631 0.86905 0
v -0.81631 0.86905 0
v 0.11 2.65095 0.89095
v 0.11 0.86905 0.89095
v 0.11 2.65095 -0.89095
v 0.11 0.86905 -0.89095
v 1.03631 1.76 0.89095
v -0.81631 1.76 0.89095
v 1.03631 1.76 -0.89095
v -0.81631 1.76 -0.89095
v 0.8378 2.80765 0
v -0.6178 2.80765 0
v 0.8378 0.71235 0
v -0.6178 0.71235 0
v 0.11 2.46002 1.04765
v 0.11 1.05998 1.04765
v 0.11 2.46002 -1.04765
v 0.11 1.05998 -1.04765
v 0.8378 1.76 1.04765
v -0.6178 1.76 1.04765
v 0.8378 1.76 -1.04765
v -0.6178 1.76 -1.04765
v 0.61132 2.92409 0
v -0.39132 2.92409 0
v 0.61132 0.59591 0
v -0.39132 0.59591 0
v 0.11 2.24218 1.16409
v 0.11 1.27782 1.16409
v 0.11 2.24218 -1.16409
v 0.11 1.27782 -1.16409
v 0.61132 1.76 1.16409
v -0.39132 1.76 1.16409
v 0.61132 1.76 -1.16409
v -0.39132 1.76 -1.16409
v 0.36557 2.99579 0
v -0.14557 2.99579 0
v 0.36557 0.52421 0
v -0.14557 0.52421 0
v 0.11 2.00581 1.23579
v 0.11 1.51419 1.23579
v 0.11 2.00581 -1.23579
v 0.11 1.51419 -1.23579
v 0.36557 1.76 1.23579
v -0.14557 1.76 1.23579
v 0.36557 1.76 -1.23579
v -0.14557 1.76 -1.23579
v 1.42 1.76 0
v -1.2 1.76 0
v 0.11 3.02 0
v 0.11 0.5 0
v 0.11 1.76 1.26
v 0.11 1.76 -1.26
f 253 169 177
f 169 181 1
f 169 1 177
f 177 1 189
f 181 193 9
f 181 9 1
f 1 9 17
f 1 17 189
f 189 17 201
f 193 205 25
f 193 25 9
f 9 25 33
f 9 33 17
f 17 33 41
f 17 41 201
f 201 41 213
f 205 217 49
f 205 49 25
f 25 49 57
f 25 57 33
f 33 57 65
f 33 65 41
f 41 65 73
f 41 73 213
f 213 73 225
f 217 229 81
f 217 81 49
f 49 81 89
f 49 89 57
f 57 89 97
f 57 97 65
f 65 97 105
f 65 105 73
f 73 105 113
f 73 113 225
f 225 113 237
f 229 241 121
f 229 121 81
f 81 121 129
f 81 129 89
f 89 129 137
f 89 137 97
f 97 137 145
f 97 145 105
f 105 145 153
f 105 153 113
f 113 153 161
f 113 161 237
f 237 161 249
f 241 255 173
f 241 173 121
f 121 173 185
f 121 185 129
f 129 185 197
f 129 197 137
f 137 197 209
f 137 209 145
f 145 209 221
f 145 221 153
f 153 221 233
f 153 233 161
f 161 233 245
f 161 245 249
f 249 245 257
f 254 178 170
f 170 2 182
f 170 178 2
f 178 190 2
f 182 10 194
f 182 2 10
f 2 18 10
f 2 190 18
f 190 202 18
f 194 26 206
f 194 10 26
f 10 34 26
f 10 18 34
f 18 42 34
f 18 202 42
f 202 214 42
f 206 50 218
f 206 26 50
f 26 58 50
f 26 34 58
f 34 66 58
f 34 42 66
f 42 74 66
f 42 214 74
f 214 226 74
f 218 82 230
f 218 50 82
f 50 90 82
f 50 58 90
f 58 98 90
f 58 66 98
f 66 106 98
f 66 74 106
f 74 114 106
f 74 226 114
f 226 238 114
f 230 122 242
f 230 82 122
f 82 130 122
f 82 90 130
f 90 138 130
f 90 98 138
f 98 146 138
f 98 106 146
f 106 154 146
f 106 114 154
f 114 162 154
f 114 238 162
f 238 250 162
f 242 173 255
f 242 122 173
f 122 185 173
f 122 130 185
f 130 197 185
f 130 138 197
f 138 209 197
f 138 146 209
f 146 221 209
f 146 154 221
f 154 233 221
f 154 162 233
f 162 245 233
f 162 250 245
f 250 257 245
f 254 172 178
f 172 184 3
f 172 3 178
f 178 3 190
f 184 196 11
f 184 11 3
f 3 11 19
f 3 19 190
f 190 19 202
f 196 208 27
f 196 27 11
f 11 27 35
f 11 35 19
f 19 35 43
f 19 43 202
f 202 43 214
f 208 220 51
f 208 51 27
f 27 51 59
f 27 59 35
f 35 59 67
f 35 67 43
f 43 67 75
f 43 75 214
f 214 75 226
f 220 232 83
f 220 83 51
f 51 83 91
f 51 91 59
f 59 91 99
f 59 99 67
f 67 99 107
f 67 107 75
f 75 107 115
f 75 115 226
f 226 115 238
f 232 244 123
f 232 123 83
f 83 123 131
f 83 131 91
f 91 131 139
f 91 139 99
f 99 139 147
f 99 147 107
f 107 147 155
f 107 155 115
f 115 155 163
f 115 163 238
f 238 163 250
f 244 256 174
f 244 174 123
f 123 174 186
f 123 186 131
f 131 186 198
f 131 198 139
f 139 198 210
f 139 210 147
f 147 210 222
f 147 222 155
f 155 222 234
f 155 234 163
f 163 234 246
f 163 246 250
f 250 246 257
f 253 177 171
f 171 4 183
f 171 177 4
f 177 189 4
f 183 12 195
f 183 4 12
f 4 20 12
f 4 189 20
f 189 201 20
f 195 28 207
f 195 12 28
f 12 36 28
f 12 20 36
f 20 44 36
f 20 201 44
f 201 213 44
f 207 52 219
f 207 28 52
f 28 60 52
f 28 36 60
f 36 68 60
f 36 44 68
f 44 76 68
f 44 213 76
f 213 225 76
f 219 84 231
f 219 52 84
f 52 92 84
f 52 60 92
f 60 100 92
f 60 68 100
f 68 108 100
f 68 76 108
f 76 116 108
f 76 225 116
f 225 237 116
f 231 124 243
f 231 84 124
f 84 132 124
f 84 92 132
f 92 140 132
f 92 100 140
f 100 148 140
f 100 108 148
f 108 156 148
f 108 116 156
f 116 164 156
f 116 237 164
f 237 249 164
f 243 174 256
f 243 124 174
f 124 186 174
f 124 132 186
f 132 198 186
f 132 140 198
f 140 210 198
f 140 148 210
f 148 222 210
f 148 156 222
f 156 234 222
f 156 164 234
f 164 246 234
f 164 249 246
f 249 257 246
f 253 179 169
f 169 5 181
f 169 179 5
f 179 191 5
f 181 13 193
f 181 5 13
f 5 21 13
f 5 191 21
f 191 203 21
f 193 29 205
f 193 13 29
f 13 37 29
f 13 21 37
f 21 45 37
f 21 203 45
f 203 215 45
f 205 53 217
f 205 29 53
f 29 61 53
f 29 37 61
f 37 69 61
f 37 45 69
f 45 77 69
f 45 215 77
f 215 227 77
f 217 85 229
f 217 53 85
f 53 93 85
f 53 61 93
f 61 101 93
f 61 69 101
f 69 109 101
f 69 77 109
f 77 117 109
f 77 227 117
f 227 239 117
f 229 125 241
f 229 85 125
f 85 133 125
f 85 93 133
f 93 141 133
f 93 101 141
f 101 149 141
f 101 109 149
f 109 157 149
f 109 117 157
f 117 165 157
f 117 239 165
f 239 251 165
f 241 175 255
f 241 125 175
f 125 187 175
f 125 133 187
f 133 199 187
f 133 141 199
f 141 211 199
f 141 149 211
f 149 223 211
f 149 157 223
f 157 235 223
f 157 165 235
f 165 247 235
f 165 251 247
f 251 258 247
f 254 170 180
f 170 182 6
f 170 6 180
f 180 6 192
f 182 194 14
f 182 14 6
f 6 14 22
f 6 22 192
f 192 22 204
f 194 206 30
f 194 30 14
f 14 30 38
f 14 38 22
f 22 38 46
f 22 46 204
f 204 46 216
f 206 218 54
f 206 54 30
f 30 54 62
f 30 62 38
f 38 62 70
f 38 70 46
f 46 70 78
f 46 78 216
f 216 78 228
f 218 230 86
f 218 86 54
f 54 86 94
f 54 94 62
f 62 94 102
f 62 102 70
f 70 102 110
f 70 110 78
f 78 110 118
f 78 118 228
f 228 118 240
f 230 242 126
f 230 126 86
f 86 126 134
f 86 134 94
f 94 134 142
f 94 142 102
f 102 142 150
f 102 150 110
f 110 150 158
f 110 158 118
f 118 158 166
f 118 166 240
f 240 166 252
f 242 255 175
f 242 175 126
f 126 175 187
f 126 187 134
f 134 187 199
f 134 199 142
f 142 199 211
f 142 211 150
f 150 211 223
f 150 223 158
f 158 223 235
f 158 235 166
f 166 235 247
f 166 247 252
f 252 247 258
f 254 180 172
f 172 7 184
f 172 180 7
f 180 192 7
f 184 15 196
f 184 7 15
f 7 23 15
f 7 192 23
f 192 204 23
f 196 31 208
f 196 15 31
f 15 39 31
f 15 23 39
f 23 47 39
f 23 204 47
f 204 216 47
f 208 55 220
f 208 31 55
f 31 63 55
f 31 39 63
f 39 71 63
f 39 47 71
f 47 79 71
f 47 216 79
f 216 228 79
f 220 87 232
f 220 55 87
f 55 95 87
f 55 63 95
f 63 103 95
f 63 71 103
f 71 111 103
f 71 79 111
f 79 119 111
f 79 228 119
f 228 240 119
f 232 127 244
f 232 87 127
f 87 135 127
f 87 95 135
f 95 143 135
f 95 103 143
f 103 151 143
f 103 111 151
f 111 159 151
f 111 119 159
f 119 167 159
f 119 240 167
f 240 252 167
f 244 176 256
f 244 127 176
f 127 188 176
f 127 135 188
f 135 200 188
f 135 143 200
f 143 212 200
f 143 151 212
f 151 224 212
f 151 159 224
f 159 236 224
f 159 167 236
f 167 248 236
f 167 252 248
f 252 258 248
f 253 171 179
f 171 183 8
f 171 8 179
f 179 8 191
f 183 195 16
f 183 16 8
f 8 16 24
f 8 24 191
f 191 24 203
f 195 207 32
f 195 32 16
f 16 32 40
f 16 40 24
f 24 40 48
f 24 48 203
f 203 48 215
f 207 219 56
f 207 56 32
f 32 56 64
f 32 64 40
f 40 64 72
f 40 72 48
f 48 72 80
f 48 80 215
f 215 80 227
f 219 231 88
f 219 88 56
f 56 88 96
f 56 96 64
f 64 96 104
f 64 104 72
f 72 104 112
f 72 112 80
f 80 112 120
f 80 120 227
f 227 120 239
f 231 243 128
f 231 128 88
f 88 128 136
f 88 136 96
f 96 136 144
f 96 144 104
f 104 144 152
f 104 152 112
f 112 152 160
f 112 160 120
f 120 160 168
f 120 168 239
f 239 168 251
f 243 256 176
f 243 176 128
f 128 176 188
f 128 188 136
f 136 188 200
f 136 200 144
f 144 200 212
f 144 212 152
f 152 212 224
f 152 224 160
f 160 224 236
f 160 236 168
f 168 236 248
f 168 248 251
f 251 248 258
g Cylinder_1
v 0.105 -2.05 0
v 0.91 -2.05 0
v 0.84872 -2.05 -0.30806
v 0.67422 -2.05 -0.56922
v 0.41306 -2.05 -0.74372
v 0.105 -2.05 -0.805
v -0.20306 -2.05 -0.74372
v -0.46422 -2.05 -0.56922
v -0.63872 -2.05 -0.30806
v -0.7 -2.05 0
v -0.63872 -2.05 0.30806
v -0.46422 -2.05 0.56922
v -0.20306 -2.05 0.74372
v 0.105 -2.05 0.805
v 0.41306 -2.05 0.74372
v 0.67422 -2.05 0.56922
v 0.84872 -2.05 0.30806
v 0.91 0.47 0
v 0.84872 0.47 -0.30806
v 0.67422 0.47 -0.56922
v 0.41306 0.47 -0.74372
v 0.105 0.47 -0.805
v -0.20306 0.47 -0.74372
v -0.46422 0.47 -0.56922
v -0.63872 0.47 -0.30806
v -0.7 0.47 0
v -0.63872 0.47 0.30806
v -0.46422 0.47 0.56922
v -0.20306 0.47 0.74372
v 0.105 0.47 0.805
v 0.41306 0.47 0.74372
v 0.67422 0.47 0.56922
v 0.84872 0.47 0.30806
v 0.105 0.47 0
vn 0 -1 0
vn 0 -1 0
vn 1 0 0
vn 0 -1 0
vn 0.92388 0 -0.38268
vn 0 -1 0
vn 0.70711 0 -0.70711
vn 0 -1 0
vn 0.38268 0 -0.92388
vn 0 -1 0
vn 0 0 -1
vn 0 -1 0
vn -0.38268 0 -0.92388
vn 0 -1 0
vn -0.70711 0 -0.70711
vn 0 -1 0
vn -0.92388 0 -0.38268
vn 0 -1 0
vn -1 0 -0
vn 0 -1 0
vn -0.92388 0 0.38268
vn 0 -1 0
vn -0.70711 0 0.70711
vn 0 -1 0
vn -0.38268 0 0.92388
vn 0 -1 0
vn -0 0 1
vn 0 -1 0
vn 0.38268 0 0.92388
vn 0 -1 0
vn 0.70711 0 0.70711
vn 0 -1 0
vn 0.92388 0 0.38268
vn 0 1 0
vn 1 0 -0
vn 0 1 0
vn 0.92388 0 -0.38268
vn 0 1 0
vn 0.70711 0 -0.70711
vn 0 1 0
vn 0.38268 0 -0.92388
vn 0 1 0
vn -0 0 -1
vn 0 1 0
vn -0.38268 0 -0.92388
vn 0 1 0
vn -0.70711 0 -0.70711
vn 0 1 0
vn -0.92388 0 -0.38268
vn 0 1 0
vn -1 0 -0
vn 0 1 0
vn -0.92388 0 0.38268
vn 0 1 0
vn -0.70711 0 0.70711
vn 0 1 0
vn -0.38268 0 0.92388
vn 0 1 0
vn -0 0 1
vn 0 1 0
vn 0.38268 0 0.92388
vn 0 1 0
vn 0.70711 0 0.70711
vn 0 1 0
vn 0.92388 0 0.38268
vn 0 1 0
f 261//4 260//2 259//1
f 262//6 261//4 259//1
f 263//8 262//6 259//1
f 264//10 263//8 259//1
f 265//12 264//10 259//1
f 266//14 265//12 259//1
f 267//16 266//14 259//1
f 268//18 267//16 259//1
f 269//20 268//18 259//1
f 270//22 269//20 259//1
f 271//24 270//22 259//1
f 272//26 271//24 259//1
f 273//28 272//26 259//1
f 274//30 273//28 259//1
f 275//32 274//30 259//1
f 260//2 275//32 259//1
f 276//35 260//3 261//5
f 277//37 261//5 262//7
f 278//39 262//7 263//9
f 279//41 263//9 264//11
f 280//43 264//11 265//13
f 281//45 265//13 266//15
f 282//47 266//15 267//17
f 283//49 267//17 268//19
f 284//51 268//19 269//21
f 285//53 269//21 270//23
f 286//55 270//23 271//25
f 287//57 271//25 272//27
f 288//59 272//27 273//29
f 289//61 273//29 274//31
f 290//63 274//31 275//33
f 291//65 275//33 260//3
f 276//35 261//5 277//37
f 277//37 262//7 278//39
f 278//39 263//9 279//41
f 279//41 264//11 280//43
f 280//43 265//13 281//45
f 281//45 266//15 282//47
f 282//47 267//17 283//49
f 283//49 268//19 284//51
f 284//51 269//21 285//53
f 285//53 270//23 286//55
f 286//55 271//25 287//57
f 287//57 272//27 288//59
f 288//59 273//29 289//61
f 289//61 274//31 290//63
f 290//63 275//33 291//65
f 291//65 260//3 276//35
f 292//66 276//34 277//36
f 292//66 277//36 278//38
f 292//66 278//38 279//40
f 292//66 279//40 280//42
f 292//66 280//42 281//44
f 292//66 281//44 282//46
f 292//66 282//46 283//48
f 292//66 283//48 284//50
f 292//66 284//50 285//52
f 292//66 285//52 286//54
f 292//66 286//54 287//56
f 292//66 287//56 288//58
f 292//66 288//58 289//60
f 292//66 289//60 290//62
f 292//66 290//62 291//64
f 292//66 291//64 276//34
s 0
g Cube_1
v -2.26 0.13 0.16
v -0.7 0.13 0.16
v -0.7 0.13 -0.16
v -2.26 0.13 -0.16
v -2.26 0.45 0.16
v -0.7 0.45 0.16
v -0.7 0.45 -0.16
v -2.26 0.45 -0.16
v -1.48 0.29 0.16
v -0.7 0.29 0
v -1.48 0.29 -0.16
v -2.26 0.29 0
v -1.48 0.13 0
v -1.48 0.45 0
f 294 293 305
f 295 294 305
f 296 295 305
f 293 296 305
f 294 295 302
f 295 299 302
f 299 298 302
f 298 294 302
f 293 294 301
f 294 298 301
f 298 297 301
f 297 293 301
f 296 293 304
f 293 297 304
f 297 300 304
f 300 296 304
f 297 298 306
f 298 299 306
f 299 300 306
f 300 297 306
f 295 296 303
f 296 300 303
f 300 299 303
f 299 295 303
s 0
g Cube_2
v 0.92 0.13 0.145
v 2.48 0.13 0.145
v 2.48 0.13 -0.145
v 0.92 0.13 -0.145
v 0.92 0.42 0.145
v 2.48 0.42 0.145
v 2.48 0.42 -0.145
v 0.92 0.42 -0.145
v 1.7 0.275 0.145
v 2.48 0.275 0
v 1.7 0.275 -0.145
v 0.92 0.275 0
v 1.7 0.13 0
v 1.7 0.42 0
f 308 307 319
f 309 308 319
f 310 309 319
f 307 310 319
f 308 309 316
f 309 313 316
f 313 312 316
f 312 308 316
f 307 308 315
f 308 312 315
f 312 311 315
f 311 307 315
f 310 307 318
f 307 311 318
f 311 314 318
f 314 310 318
f 311 312 320
f 312 313 320
f 313 314 320
f 314 311 320
f 309 310 317
f 310 314 317
f 314 313 317
f 313 309 317
